<svg viewBox="0 0 229.11 107.3" xmlns="http://www.w3.org/2000/svg"><path d="m208.29 26.71a11.39 11.39 0 0 1 -11.39 11.39h-23.39a9.57 9.57 0 0 0 -9.57 9.57 9.57 9.57 0 0 0 9.5 9.57l44.56.33a11.2 11.2 0 0 1 11.11 11.2 11.2 11.2 0 0 1 -11.19 11.23h-17.38a19.23 19.23 0 0 0 -19.23 19.23v7.77l-128.17-.5a18.08 18.08 0 0 0 -18.08-18.11h-22.76a12.3 12.3 0 0 1 -12.3-12.3 12.3 12.3 0 0 1 12.3-12.3h38.13a11.34 11.34 0 0 0 11.33-11.34 11.34 11.34 0 0 0 -11.33-11.34h-18a12.9 12.9 0 0 1 -12.9-12.9 12.9 12.9 0 0 1 12.9-12.9h164.47a11.39 11.39 0 0 1 11.39 11.4z" fill="#dfecff"/><rect fill="#fff" height="16.1" rx="1.56" transform="matrix(.97561123 -.21950567 .21950567 .97561123 -19.47 15.78)" width="22.89" x="49.85" y="87.47"/><path d="m70.7 85.15-9 9.93a.83.83 0 0 1 -.93.21l-12.41-5.11z" fill="#5fa0ff"/><path d="m61.07 96.1a1.58 1.58 0 0 1 -.6-.12l-12.15-4.98.57-1.39 12.11 4.99 8.85-9.6 1.15 1-8.72 9.62a1.59 1.59 0 0 1 -1.21.48z" fill="#0053cc"/><path d="m50.73 104.11-2.88-12.8a1.74 1.74 0 0 1 1.32-2.08l2.09-.47.33 1.46-2.09.47a.24.24 0 0 0 -.15.11.24.24 0 0 0 0 .18l2.88 12.8z" fill="#0053cc"/><path d="m71.28 91.17-1.1-4.89a.24.24 0 0 0 -.11-.15.24.24 0 0 0 -.18 0l-12.89 2.87-.33-1.46 12.86-2.89a1.75 1.75 0 0 1 2.12 1.35l1.1 4.89z" fill="#0053cc"/><path d="m53.16 88.07h2.46v1.5h-2.46z" fill="#0053cc" transform="matrix(.97564952 -.21933539 .21933539 .97564952 -18.16 14.09)"/><path d="m119.64 106.55v-62.67a3.08 3.08 0 0 0 -3.08-3.08h-45.56a3.08 3.08 0 0 0 -3.08 3.08v62.67z" fill="#5fa0ff"/><path d="m115.42 106.55v-62.67a2.88 2.88 0 0 0 -2.61-3.08h-38.62a2.88 2.88 0 0 0 -2.61 3.08v62.67z" fill="#fff"/><path d="m67.93 48.79v-5.4a2.59 2.59 0 0 1 2.59-2.59h46.53a2.59 2.59 0 0 1 2.59 2.59v5.4z" fill="#5fa0ff"/><path d="m68.68 87.82h-1.5v-44.43a3.35 3.35 0 0 1 3.34-3.39h6.87v1.5h-6.87a1.84 1.84 0 0 0 -1.84 1.84z" fill="#0053cc"/><path d="m120.39 73.57h-1.5v-30.18a1.84 1.84 0 0 0 -1.84-1.84h-30.68v-1.55h30.68a3.35 3.35 0 0 1 3.34 3.34z" fill="#0053cc"/><path d="m79.9 40.05h3.55v1.5h-3.55z" fill="#0053cc"/><path d="m67.93 48.18h51.72v1.5h-51.72z" fill="#0053cc"/><path d="m73.87 44.48h1.2v1.5h-1.2z" fill="#0053cc"/><path d="m77.36 44.48h1.2v1.5h-1.2z" fill="#0053cc"/><path d="m80.85 44.48h1.2v1.5h-1.2z" fill="#0053cc"/><path d="m74.86 54.89h37.86v14.93h-37.86z" fill="#b0d0ff"/><g fill="#0053cc"><path d="m78.17 14.67h-4.38a.75.75 0 0 1 0-1.5h4.38a.75.75 0 0 1 0 1.5z"/><path d="m76 16.86a.75.75 0 0 1 -.75-.75v-4.38a.75.75 0 1 1 1.5 0v4.38a.75.75 0 0 1 -.75.75z"/><path d="m204.05 92.8h-4.38a.75.75 0 0 1 0-1.5h4.38a.75.75 0 0 1 0 1.5z"/><path d="m201.87 95a.75.75 0 0 1 -.75-.75v-4.39a.75.75 0 0 1 1.5 0v4.38a.75.75 0 0 1 -.75.76z"/><path d="m119.92 29.67a.75.75 0 0 1 -.53-1.28l3.1-3.09a.75.75 0 1 1 1.06 1.06l-3.1 3.09a.75.75 0 0 1 -.53.22z"/><path d="m123 29.67a.75.75 0 0 1 -.53-.22l-3.1-3.09a.75.75 0 1 1 1.06-1.06l3.1 3.09a.75.75 0 0 1 -.53 1.28z"/><path d="m33.18 60.17a.75.75 0 0 1 -.53-1.28l3.1-3.09a.75.75 0 1 1 1.06 1.06l-3.1 3.14a.75.75 0 0 1 -.53.17z"/><path d="m36.27 60.17a.75.75 0 0 1 -.53-.22l-3.1-3.09a.75.75 0 0 1 1.06-1.06l3.1 3.09a.75.75 0 0 1 -.53 1.28z"/><path d="m18.39 37h27.09v1.5h-27.09z"/><path d="m127.67 26.63h3.12v1.5h-3.12z"/><circle cx="209.27" cy="65.89" r="1.25"/><circle cx="21.2" cy="43.53" r="1.25"/><circle cx="177.82" cy="28.15" r=".82"/><circle cx="46.3" cy="20.65" r=".82"/><circle cx="37.09" cy="77.04" r=".82"/><circle cx="134.71" cy="43.53" r="1.09"/><circle cx="150.03" cy="7.48" r="1.09"/><circle cx="76.57" cy="25.83" r="1.09"/></g><path d="m96.16 96.61h-.16a6.76 6.76 0 0 0 -10.17-3.81 9.26 9.26 0 0 0 -18-1.33 6.33 6.33 0 0 0 -7.93 5.14h-1a4.77 4.77 0 0 0 -4.75 4.75v.35a4.77 4.77 0 0 0 4.75 4.75h37.3a4.77 4.77 0 0 0 4.75-4.75v-.35a4.77 4.77 0 0 0 -4.79-4.75z" fill="#b0d0ff"/><path d="m91.79 97.77h-.16a6 6 0 0 0 -8.95-3.36 8.16 8.16 0 0 0 -15.86-1.17 5.58 5.58 0 0 0 -7 4.53h-.91a4.2 4.2 0 0 0 -4.19 4.23v.31a4.2 4.2 0 0 0 4.19 4.19h32.88a4.2 4.2 0 0 0 4.21-4.23v-.27a4.2 4.2 0 0 0 -4.21-4.23z" fill="#fff"/><path d="m82.09 92.46a7 7 0 0 0 -9.39-2.21l-.77-1.25a8.47 8.47 0 0 1 11.42 2.68z" fill="#0053cc"/><path d="m74.32 107.21h-15.65a5.31 5.31 0 0 1 -5.31-5.31v-.34a5.31 5.31 0 0 1 5.31-5.31h.38a6.81 6.81 0 0 1 7.73-5.05 9.56 9.56 0 0 1 1.6-2.7 9.62 9.62 0 0 1 7.37-3.43v1.5a8.12 8.12 0 0 0 -6.22 2.9 8.08 8.08 0 0 0 -1.53 2.83l-.21.69-.7-.19a5.31 5.31 0 0 0 -6.67 4.32l-.1.63h-1.65a3.81 3.81 0 0 0 -3.81 3.81v.34a3.81 3.81 0 0 0 3.81 3.81h15.65z" fill="#0053cc"/><path d="m70.35 95.4h-1.5a2.55 2.55 0 0 0 -2.55-2.55v-1.5a4.05 4.05 0 0 1 4.05 4.05z" fill="#0053cc"/><path d="m79.56 81.31h30.26a2.88 2.88 0 0 1 2.88 2.88v20.49a1.49 1.49 0 0 1 -1.49 1.49h-30.21a1.42 1.42 0 0 1 -1.42-1.42v-23.44a0 0 0 0 1 -.02 0z" fill="#0065ff" transform="matrix(-1 0 0 -1 192.25 187.49)"/><path d="m113.45 106.93h-31.29a3.36 3.36 0 0 1 -3.35-3.35v-20.92a2.1 2.1 0 0 1 2.1-2.1h2v1.5h-2a.6.6 0 0 0 -.6.6v20.92a1.85 1.85 0 0 0 1.85 1.85h29.79v-22.83a.53.53 0 0 0 -.53-.53h-19.54v-1.5h19.54a2 2 0 0 1 2 2z" fill="#0053cc"/><path d="m91.43 72-6.6 6.6v23a1.89 1.89 0 0 0 1.89 1.89h19.71a1.89 1.89 0 0 0 1.89-1.89v-27.7a1.89 1.89 0 0 0 -1.9-1.9z" fill="#fff"/><path d="m91.43 78.61v-6.6l-6.6 6.6z" fill="#0065ff"/><path d="m90.77 79.36h-5.95v-1.5h5.85v-5.86h1.5v6a1.41 1.41 0 0 1 -1.4 1.36z" fill="#0053cc"/><path d="m106.42 104.3h-19.71a2.64 2.64 0 0 1 -2.64-2.64v-23.36l7-7h15.31a2.64 2.64 0 0 1 2.64 2.64v8.9h-1.5v-8.94a1.14 1.14 0 0 0 -1.14-1.14h-14.64l-6.16 6.16v22.74a1.14 1.14 0 0 0 1.14 1.14h19.71z" fill="#0053cc"/><path d="m87.58 70.09-6.58 6.6v23a1.89 1.89 0 0 0 1.89 1.89h19.71a1.89 1.89 0 0 0 1.89-1.89v-27.69a1.89 1.89 0 0 0 -1.89-1.89z" fill="#b0d0ff"/><path d="m87.58 76.69v-6.61l-6.6 6.61z" fill="#0065ff"/><path d="m86.92 77.44h-5.92v-1.5h5.85v-5.86h1.5v5.92a1.41 1.41 0 0 1 -1.43 1.44z" fill="#0053cc"/><path d="m84.15 79.16h16.8v1.5h-16.8z" fill="#0053cc"/><path d="m84.15 82.9h16.8v1.5h-16.8z" fill="#0053cc"/><path d="m84.15 86.65h16.8v1.5h-16.8z" fill="#0053cc"/><path d="m84.15 90.39h16.8v1.5h-16.8z" fill="#0053cc"/><path d="m83.74 102.38h-.87a2.64 2.64 0 0 1 -2.64-2.64v-23.36l7-7h15.31a2.64 2.64 0 0 1 2.68 2.62v13.3h-1.5v-13.3a1.14 1.14 0 0 0 -1.14-1.14h-14.69l-6.16 6.14v22.74a1.14 1.14 0 0 0 1.14 1.14h.87z" fill="#0053cc"/><path d="m83.74 73-6.6 6.6v23a1.89 1.89 0 0 0 1.86 1.91h19.73a1.89 1.89 0 0 0 1.89-1.89v-27.76a1.89 1.89 0 0 0 -1.89-1.86z" fill="#fff"/><path d="m83.74 79.57v-6.6l-6.61 6.6z" fill="#0065ff"/><path d="m83.08 80.32h-5.95v-1.5h5.87v-5.82h1.5v5.94a1.41 1.41 0 0 1 -1.42 1.38z" fill="#0053cc"/><path d="m80.3 82.04h16.8v1.5h-16.8z" fill="#0053cc"/><path d="m80.3 85.79h16.8v1.5h-16.8z" fill="#0053cc"/><path d="m80.3 89.53h16.8v1.5h-16.8z" fill="#0053cc"/><path d="m80.3 93.28h16.8v1.5h-16.8z" fill="#0053cc"/><path d="m82.39 105.26h-3.39a2.64 2.64 0 0 1 -2.64-2.64v-23.36l7-7h15.37a2.64 2.64 0 0 1 2.64 2.64v10.4h-1.5v-10.44a1.14 1.14 0 0 0 -1.14-1.14h-14.73l-6.16 6.16v22.74a1.14 1.14 0 0 0 1.16 1.14h3.37z" fill="#0053cc"/><path d="m82.21 106.18h31.63a1.37 1.37 0 0 0 1.37-1.37v-19.64a1.15 1.15 0 0 0 -1.15-1.17h-5.41a1.15 1.15 0 0 0 -1 .54l-1.4 2.22h-20.07a1.31 1.31 0 0 0 -1.31 1.31v15.43a2.6 2.6 0 0 1 -2.66 2.68z" fill="#fff"/><path d="m84.86 103.53v-2.24h30.35v3.52a1.37 1.37 0 0 1 -1.37 1.37h-31.63a2.6 2.6 0 0 0 2.65-2.65z" fill="#5fa0ff"/><path d="m113.84 106.93h-31.63v-1.5a1.85 1.85 0 0 0 1.9-1.9v-15.44a2.07 2.07 0 0 1 2.07-2.09h17.61v1.5h-17.61a.56.56 0 0 0 -.56.56v15.43a3.55 3.55 0 0 1 -.56 1.9h28.78a.63.63 0 0 0 .62-.62v-19.6a.4.4 0 0 0 -.4-.4h-5.41v-1.5h5.41a1.9 1.9 0 0 1 1.9 1.9v19.63a2.13 2.13 0 0 1 -2.12 2.13z" fill="#0053cc"/><g fill="#0053cc" opacity=".3"><path d="m99.64 73.58a16.57 16.57 0 0 0 -4.16 6.42l-.55-.09a6.36 6.36 0 0 0 -1.58-.21v.06h-.2a11.58 11.58 0 0 0 -11.37 9.19h-1.16a8.9 8.9 0 0 0 -8.89 8.89v.6a8.9 8.9 0 0 0 5.33 8.14h22.58z"/><path d="m100.39 72.93c-.25.21-.51.41-.74.64h.74z"/></g><path d="m157.38 98.41v-.6a8.9 8.9 0 0 0 -8.65-8.88 12.32 12.32 0 0 0 -17.39-7 16.5 16.5 0 0 0 -6.44-9.84v.63h.75v12.5a1.66 1.66 0 0 0 1.67 1.66h12.68v17.62a2.31 2.31 0 0 0 2.31 2.31h9.12a8.9 8.9 0 0 0 5.95-8.4z" fill="#0053cc" opacity=".3"/><path d="m166.49 89.67h-.32a11.57 11.57 0 0 0 -17.38-6.52 15.86 15.86 0 0 0 -30.79-2.28 10.85 10.85 0 0 0 -13.58 8.8h-1.77a8.16 8.16 0 0 0 -8.14 8.14v.6a8.16 8.16 0 0 0 8.14 8.14h63.87a8.16 8.16 0 0 0 8.14-8.14v-.6a8.16 8.16 0 0 0 -8.17-8.14z" fill="#fff"/><path d="m166.49 107.3h-9.74v-1.5h9.74a7.39 7.39 0 0 0 7.39-7.39v-.6a7.39 7.39 0 0 0 -7.39-7.39h-.88l-.16-.54a10.82 10.82 0 0 0 -16.25-6.1l-1 .62-.18-1.14a15.1 15.1 0 0 0 -26.48-7.42 15.23 15.23 0 0 0 -1.63 2.36 15 15 0 0 0 -1.24 2.89l-.21.69-.7-.19a10.1 10.1 0 0 0 -12.65 8.2l-.1.63h-2.42a7.39 7.39 0 0 0 -7.39 7.39v.6a7.39 7.39 0 0 0 7.39 7.39h35.64v1.5h-35.61a8.9 8.9 0 0 1 -8.89-8.89v-.6a8.9 8.9 0 0 1 8.89-8.89h1.15a11.59 11.59 0 0 1 13.71-8.92 16.56 16.56 0 0 1 1.14-2.51 16.64 16.64 0 0 1 14.51-8.49 16.5 16.5 0 0 1 16.2 13 12.32 12.32 0 0 1 17.39 7 8.9 8.9 0 0 1 8.65 8.88v.6a8.9 8.9 0 0 1 -8.88 8.82z" fill="#0053cc"/><path d="m121.75 86.09h-1.5a4.9 4.9 0 0 0 -4.9-4.9v-1.5a6.41 6.41 0 0 1 6.4 6.4z" fill="#0053cc"/><path d="m33.46 105.8h163.82v1.5h-163.82z" fill="#0053cc"/><path d="m28.89 105.8h2.74v1.5h-2.74z" fill="#0053cc"/><path d="m198.84 105.8h6.05v1.5h-6.05z" fill="#0053cc"/><path d="m163.47 105.6v-77.6a3.36 3.36 0 0 0 -3.36-3.36h-49.7a3.36 3.36 0 0 0 -3.41 3.36v77.61z" fill="#fff"/><path d="m107 33.35v-5.89a2.83 2.83 0 0 1 2.83-2.83h50.76a2.83 2.83 0 0 1 2.83 2.83v5.89z" fill="#b0d0ff"/><path d="m107.8 106.14h-1.5v-78.68a3.58 3.58 0 0 1 3.58-3.58h50.76a3.58 3.58 0 0 1 3.58 3.58v39h-1.5v-39a2.08 2.08 0 0 0 -2.08-2.08h-50.77a2.08 2.08 0 0 0 -2.08 2.08z" fill="#0053cc"/><path d="m107.05 32.75h56.42v1.5h-56.42z" fill="#0053cc"/><path d="m113.53 28.72h2.26v1.5h-2.26z" fill="#0053cc"/><path d="m118.75 28.72h2.26v1.5h-2.26z" fill="#0053cc"/><path d="m123.98 28.72h2.26v1.5h-2.26z" fill="#0053cc"/><path d="m114.6 40.01h41.3v16.29h-41.3z" fill="#5fa0ff"/><path d="m114.1 92.74h41.3v11.55h-41.3z" fill="#5fa0ff"/><path d="m114.61 68.64h12.56v16.29h-12.56z" fill="#b0d0ff"/><path d="m129.48 68.64h12.56v16.29h-12.56z" fill="#b0d0ff"/><path d="m144.35 68.64h12.56v16.29h-12.56z" fill="#b0d0ff"/><path d="m126.48 60.7h17.56v1.5h-17.56z" fill="#0053cc"/><path d="m132.59 55.19a1.34 1.34 0 0 0 -1.33 1.33v-1.4a1.33 1.33 0 0 0 -2.67 0v-1.4a1.33 1.33 0 1 0 -2.67 0v-4.23a1.33 1.33 0 1 0 -2.67 0v8.4h-1.88a.9.9 0 0 0 -.9.9v5.94a1.22 1.22 0 0 0 .71 1.11l1.09.51a1.22 1.22 0 0 1 .71 1.11v2.54h8.88v-2.9a1.08 1.08 0 0 1 .32-.77l1.36-1.33a1.28 1.28 0 0 0 .38-.91v-7.56a1.34 1.34 0 0 0 -1.33-1.34z" fill="#fff"/><path d="m123.94 60.31h-1.5v-10.82a2.08 2.08 0 1 1 4.17 0v8.86h-1.5v-8.86a.58.58 0 0 0 -.58-.58.59.59 0 0 0 -.58.58z" fill="#0053cc"/><path d="m129.28 56h-1.5v-2.27a.58.58 0 1 0 -1.17 0v2.27h-1.5v-2.27a2.08 2.08 0 1 1 4.17 0z" fill="#0053cc"/><path d="m131.95 58.35h-1.5v-3.22a.58.58 0 1 0 -1.17 0v3.22h-1.5v-3.22a2.08 2.08 0 1 1 4.17 0z" fill="#0053cc"/><path d="m132.55 70h-1.5v-2.9a1.84 1.84 0 0 1 .55-1.31l1.4-1.3a.53.53 0 0 0 .16-.38v-7.58a.58.58 0 1 0 -1.17 0v1.26h-1.5v-1.26a2.08 2.08 0 1 1 4.17 0v7.59a2 2 0 0 1 -.61 1.45l-1.36 1.33a.33.33 0 0 0 -.1.23z" fill="#0053cc"/><path d="m123.67 70h-1.5v-2.55a.47.47 0 0 0 -.27-.43l-1.09-.51a2 2 0 0 1 -1.15-1.79v-5.93a1.65 1.65 0 0 1 1.65-1.65h1.88v1.5h-1.88a.15.15 0 0 0 -.15.15v5.94a.47.47 0 0 0 .27.43l1.09.51a2 2 0 0 1 1.15 1.79z" fill="#0053cc"/><path d="m121.74 67.72h11.35v38.43h-11.35z" fill="#0065ff"/><path d="m125.86 67.72h7.23v38.43h-7.23z" fill="#5fa0ff"/><path d="m133.85 106.15h-1.5v-37.68h-9.86v37.68h-1.5v-39.18h12.86z" fill="#0053cc"/><path d="m97.56 30.59-1.5-8.13a15.47 15.47 0 1 0 -5.9 6.78z" fill="#5fa0ff"/><path d="m82 32.35a16.26 16.26 0 0 1 -14.63-9.26l1.36-.64a14.65 14.65 0 0 0 21.03 6.15l.25-.16 6.62 1.21-1.35-7.29.1-.21a14.64 14.64 0 0 0 -2-15.21l1.17-.94a16.21 16.21 0 0 1 3.61 10.18 16 16 0 0 1 -1.32 6.38l1.66 9-8.19-1.56a16.12 16.12 0 0 1 -8.31 2.35z" fill="#0053cc"/><path d="m68.46 10.46-1.38-.58a16.19 16.19 0 0 1 21.36-8.54l-.6 1.37a14.69 14.69 0 0 0 -19.37 7.75z" fill="#0053cc"/><path d="m92.4 5.84a14.72 14.72 0 0 0 -3.1-2.38l.75-1.3a16.23 16.23 0 0 1 3.41 2.63z" fill="#0053cc"/><ellipse cx="82.06" cy="16.17" fill="#fff" rx="11.91" ry="11.63"/><path d="m83.73 12.16h.33a9.42 9.42 0 0 0 .58-2.45c0-.29 0-.76 0-1.19v.29a13.67 13.67 0 0 1 -.91 3.35z" fill="#4d93ff"/><path d="m90.88 18.21h-1.88v-1.5h1.88a.35.35 0 1 0 0-.7h-1.88v-1.5h1.88a1.85 1.85 0 1 1 0 3.7z" fill="#0053cc"/><path d="m89.73 20.4h-2.65v-1.5h2.65a.35.35 0 1 0 0-.7h-2.65v-1.5h2.65a1.85 1.85 0 1 1 0 3.7z" fill="#0053cc"/><path d="m88.58 22.6h-6.25a1.81 1.81 0 0 1 -1.33-.54l-1-1.12a.14.14 0 0 0 -.1 0h-.26v-1.54h.26a1.65 1.65 0 0 1 1.17.49l1.05 1.11a.3.3 0 0 0 .21.09h6.24a.35.35 0 0 0 0-.7h-1v-1.49h1a1.85 1.85 0 0 1 0 3.7z" fill="#0053cc"/><path d="m90.45 16h-3.37v-1.5h3.37a.35.35 0 0 0 0-.7h-7.93l.41-1a12.26 12.26 0 0 0 .85-3.08c0-.1 0-.23 0-.36a7 7 0 0 0 0-.93 15.5 15.5 0 0 1 -1.34 3.1c-.32.43-1.53 2-1.53 2l-.23.29h-1.53v-1.5h.79c.36-.47 1.05-1.37 1.28-1.68a17.29 17.29 0 0 0 1.28-3.13l.09-.18a1.31 1.31 0 0 1 1.18-.48 1.32 1.32 0 0 1 1.23.49 3.74 3.74 0 0 1 .32 2.06v.3a9.72 9.72 0 0 1 -.58 2.61h5.75a1.85 1.85 0 0 1 0 3.7z" fill="#0053cc"/><path d="m78.45 22h-5.2v-1.5h5.2a.16.16 0 0 0 .16-.16v-7.55a.16.16 0 0 0 -.16-.16h-1.34v-1.5h1.34a1.66 1.66 0 0 1 1.66 1.66v7.51a1.66 1.66 0 0 1 -1.66 1.7z" fill="#0053cc"/><path d="m52.19 20.47h20.07v1.5h-20.07z" fill="#0053cc"/><path d="m63.01 17.35h11.81v1.5h-11.81z" fill="#0053cc"/><path d="m59.2 17.35h2.82v1.5h-2.82z" fill="#0053cc"/><path d="m49.1 14.24h26.06v1.5h-26.06z" fill="#0053cc"/><path d="m49.2 11.13h27.49v1.5h-27.49z" fill="#0053cc"/><path d="m180 74.56a1.32 1.32 0 0 1 -1.32 1.32 1.32 1.32 0 0 1 -1.32-1.32v-1.28a1.32 1.32 0 0 1 1.31-1.28 1.32 1.32 0 0 1 1.33 1.28z" fill="#fff"/><path d="m178.67 76.46a1.91 1.91 0 0 1 -1.91-1.91v-1.27a1.91 1.91 0 0 1 3.81 0v1.28a1.91 1.91 0 0 1 -1.9 1.9zm0-3.91a.73.73 0 0 0 -.73.73v1.28a.73.73 0 0 0 1.45 0v-1.28a.73.73 0 0 0 -.72-.73z" fill="#0053cc"/><path d="m157.68 74.56a1.32 1.32 0 0 1 -1.32 1.32 1.32 1.32 0 0 1 -1.36-1.32v-1.28a1.32 1.32 0 0 1 1.36-1.28 1.32 1.32 0 0 1 1.32 1.32z" fill="#fff"/><path d="m156.36 76.46a1.91 1.91 0 0 1 -1.91-1.91v-1.27a1.91 1.91 0 0 1 3.81 0v1.28a1.91 1.91 0 0 1 -1.9 1.9zm0-3.91a.73.73 0 0 0 -.73.73v1.28a.73.73 0 0 0 1.45 0v-1.28a.73.73 0 0 0 -.72-.73z" fill="#0053cc"/><path d="m181.75 106.2v-8.68c0-6.64-6.33-12.07-14.06-12.07-7.74 0-14.07 5.43-14.07 12.07v8.68z" fill="#0065ff"/><path d="m154.21 106.2h-1.21v-8.68a11 11 0 0 1 .42-3l1.13.32a9.82 9.82 0 0 0 -.38 2.69z" fill="#0053cc"/><path d="m155.55 92.56-1-.58a12.92 12.92 0 0 1 2.74-3.33l.78.89a11.75 11.75 0 0 0 -2.52 3.02z" fill="#0053cc"/><path d="m176.43 88.8a15.26 15.26 0 0 0 -16.4-.71l-.6-1a16.44 16.44 0 0 1 17.7.77z" fill="#0053cc"/><path d="m161 96.68h1.18v9.52h-1.18z" fill="#0053cc"/><path d="m173.31 96.68h1.18v9.52h-1.18z" fill="#0053cc"/><path d="m167.18 90.33a2.63 2.63 0 0 1 -2.63-2.63v-5.93a2.26 2.26 0 0 1 2.26-2.26h.75a2.26 2.26 0 0 1 2.26 2.26v5.93a2.63 2.63 0 0 1 -2.64 2.63z" fill="#fff"/><path d="m167.18 90.92a3.22 3.22 0 0 1 -3.18-3.22v-5.93a2.85 2.85 0 0 1 2.85-2.85h.75a2.85 2.85 0 0 1 2.85 2.85v5.93a3.22 3.22 0 0 1 -3.27 3.22zm-.37-10.82a1.67 1.67 0 0 0 -1.67 1.67v5.93a2 2 0 0 0 4.08 0v-5.93a1.67 1.67 0 0 0 -1.67-1.67z" fill="#0053cc"/><path d="m167.4 85.14a10 10 0 0 1 -10-10v-6.79c0-5.5 4.5-5.38 10-5.38 5.5 0 10-.12 10 5.38v6.78a10 10 0 0 1 -10 10.01z" fill="#fff"/><path d="m167.4 85.73a10.61 10.61 0 0 1 -10.6-10.59v-6.79c0-2.71 1-4.43 3.2-5.26 1.85-.71 4.36-.71 7-.71h.71c2.68 0 5.19 0 7 .71 2.15.83 3.2 2.55 3.2 5.26v6.78a10.61 10.61 0 0 1 -10.51 10.6zm-.7-22.16a19.23 19.23 0 0 0 -6.27.63c-1.69.65-2.44 1.93-2.44 4.16v6.78a9.41 9.41 0 0 0 18.83 0v-6.79c0-2.22-.75-3.51-2.44-4.16s-4-.63-6.61-.63h-1.07z" fill="#0053cc"/><path d="m157.44 72.61a2.4 2.4 0 0 1 -2.4-2.4v-5.76a3.59 3.59 0 0 1 3.59-3.59 3 3 0 0 1 2.95-2.95h14.55a3.57 3.57 0 0 1 3.57 3.57v8.65a2.22 2.22 0 0 1 -2.36 2.22v-5.72s-1.64 2.68-6.82 2.68a18.32 18.32 0 0 1 -10.32-3.09 5.29 5.29 0 0 1 -1.2 1.59 1.7 1.7 0 0 1 -1.55.44z" fill="#b0d0ff"/><path d="m157.44 72.61v-4.36a1.7 1.7 0 0 0 1.55-.44 5.29 5.29 0 0 0 1.22-1.59s8.22 4.31 13.11 2.72c-5.32-2.29-12.21-3.68-13.32-10.54a3 3 0 0 0 -1.33 2.46 3.59 3.59 0 0 0 -3.67 3.59v5.76a2.4 2.4 0 0 0 2.44 2.4z" fill="#5fa0ff" opacity=".46"/><path d="m158 73.2h-.59a3 3 0 0 1 -3-3v-5.75a4.19 4.19 0 0 1 3.63-4.14 3.54 3.54 0 0 1 3.5-3h14.55a4.16 4.16 0 0 1 4.16 4.16v8.65a2.81 2.81 0 0 1 -3 2.81h-.55v-6.3h1.18v5.07a1.64 1.64 0 0 0 1.18-1.57v-8.65a3 3 0 0 0 -3-3h-14.47a2.36 2.36 0 0 0 -2.36 2.36v.59h-.59a3 3 0 0 0 -3 3v5.76a1.81 1.81 0 0 0 1.22 1.71v-4.45l.76.24a1.15 1.15 0 0 0 1-.32 4.77 4.77 0 0 0 1.05-1.37l1.08.49a5.88 5.88 0 0 1 -1.37 1.79 2.44 2.44 0 0 1 -1.35.62z" fill="#0053cc"/><path d="m170.54 69.9c-6.37 0-11.84-4-12.07-4.17l.7-.95c.05 0 5.39 3.93 11.37 3.93a8.59 8.59 0 0 0 7-3.29l1 .65a9.67 9.67 0 0 1 -8 3.83z" fill="#0053cc"/></svg>